<?xml version="1.0" standalone="no"?>
<!DOCTYPE svg PUBLIC "-//W3C//DTD SVG 20010904//EN"
 "http://www.w3.org/TR/2001/REC-SVG-20010904/DTD/svg10.dtd">
<svg version="1.0" xmlns="http://www.w3.org/2000/svg"
 width="700.000000pt" height="700.000000pt" viewBox="0 0 700.000000 700.000000"
 preserveAspectRatio="xMidYMid meet">
<metadata>
Created by potrace 1.14, written by Peter Selinger 2001-2017
</metadata>
<g transform="translate(0.000000,700.000000) scale(0.100000,-0.100000)"
fill="#000000" stroke="none">
<path d="M3377 6904 c-1 -1 -47 -4 -102 -8 -140 -9 -190 -15 -325 -37 -36 -6
-78 -13 -95 -16 -148 -23 -480 -121 -622 -184 -23 -11 -47 -19 -53 -19 -5 0
-18 -4 -28 -9 -9 -6 -75 -39 -147 -74 -151 -75 -198 -100 -205 -108 -3 -3 -21
-14 -40 -24 -89 -45 -354 -235 -485 -347 -170 -145 -404 -404 -547 -603 -67
-94 -108 -158 -186 -287 -91 -153 -213 -429 -281 -638 -42 -126 -103 -375
-116 -467 -2 -15 -8 -59 -14 -98 -32 -209 -42 -473 -27 -717 4 -64 8 -125 10
-135 2 -10 7 -45 11 -78 18 -134 24 -170 51 -290 127 -559 371 -1047 741
-1483 141 -165 444 -445 589 -542 252 -169 341 -221 546 -320 258 -123 602
-232 868 -275 25 -4 52 -9 60 -10 8 -1 42 -6 75 -10 32 -4 67 -9 78 -10 35 -7
254 -18 352 -18 107 0 347 11 380 17 11 2 45 7 75 10 30 4 78 11 105 16 28 5
68 12 90 15 137 19 461 115 647 191 103 42 307 140 378 182 19 11 53 30 75 42
73 40 348 230 375 260 3 3 25 21 50 40 69 53 114 95 250 230 199 198 358 401
510 650 56 91 151 276 202 395 15 33 34 78 43 99 57 130 170 532 190 676 2 14
8 57 14 95 25 168 35 316 34 500 0 113 -10 314 -17 352 -4 17 -14 92 -20 143
-27 214 -140 612 -235 828 -185 420 -411 751 -726 1067 -379 381 -830 660
-1340 829 -80 27 -278 81 -325 90 -14 2 -59 11 -100 19 -81 17 -117 23 -195
32 -27 3 -59 8 -70 10 -46 9 -489 26 -498 19z m438 -549 c653 -81 1233 -358
1682 -802 77 -76 157 -158 179 -183 62 -71 194 -247 194 -259 0 -6 3 -11 8
-11 17 0 178 -286 244 -435 85 -189 188 -525 203 -663 3 -26 8 -55 11 -64 3
-10 11 -70 19 -135 20 -178 13 -551 -14 -726 -82 -525 -285 -989 -614 -1397
-142 -176 -388 -411 -542 -515 -27 -19 -75 -52 -105 -72 -134 -92 -368 -214
-540 -281 -202 -78 -479 -151 -640 -168 -36 -3 -68 -8 -71 -10 -37 -21 -643
-20 -680 2 -3 2 -32 6 -64 10 -32 3 -68 8 -79 10 -12 3 -46 10 -76 15 -107 21
-133 28 -225 54 -271 80 -503 183 -738 329 -372 231 -704 568 -937 950 -196
323 -341 729 -386 1086 -3 25 -7 56 -9 70 -23 167 -23 537 -1 670 3 14 7 48
11 75 21 177 91 440 170 641 67 172 222 473 260 504 8 7 15 16 15 21 0 5 30
51 67 103 360 499 873 871 1461 1061 61 20 118 38 129 40 119 27 263 57 292
61 20 2 47 7 61 9 14 3 59 8 100 11 41 3 77 7 79 9 6 6 479 -3 536 -10z"/>
<path d="M2769 5083 c-1 -39 -1 -345 0 -375 1 -17 38 -18 624 -18 l622 0 -1
-1032 c-1 -568 -4 -1046 -7 -1063 -3 -16 -9 -46 -12 -65 -41 -249 -193 -418
-419 -464 -91 -19 -261 -14 -351 9 -183 47 -338 153 -478 327 l-46 58 -134
-158 c-73 -86 -136 -163 -141 -170 -17 -29 157 -208 285 -294 170 -112 374
-185 568 -203 60 -6 266 -6 313 0 109 12 260 45 303 65 11 5 46 21 79 35 120
51 258 166 334 276 85 125 153 310 177 484 15 109 18 330 19 1410 l0 1210
-867 3 -867 2 -1 -37z"/>
</g>
</svg>
