<svg xmlns="http://www.w3.org/2000/svg" xmlns:xlink="http://www.w3.org/1999/xlink" viewBox="0 0 1000 1000"><defs><style>.cls-1{isolation:isolate;}.cls-2{fill:url(#linear-gradient);}.cls-3{opacity:0.2;mix-blend-mode:multiply;}.cls-4{fill:#fff;}.cls-5{fill:#cbcbcb;}.cls-6{fill:#dddddf;}</style><linearGradient id="linear-gradient" x1="853.55" y1="853.55" x2="146.45" y2="146.45" gradientUnits="userSpaceOnUse"><stop offset="0" stop-color="#2f2f67"/><stop offset="0.32" stop-color="#6c215b"/><stop offset="1" stop-color="#f9003f"/></linearGradient></defs><title>Chatterrific 4 Logo</title><g class="cls-1"><g id="Layer_2" data-name="Layer 2"><g id="Layer_1-2" data-name="Layer 1"><circle class="cls-2" cx="500" cy="500" r="500"/><path class="cls-4" d="M786.09,239.57c-2,3.1-2.87,6.68-4.21,10.05-5.14,12.93-10.07,25.94-15.06,38.93-4.84,12.63-9.63,25.29-14.51,37.91-4.52,11.7-9.16,23.35-13.67,35.05-3.91,10.13-7.7,20.3-11.59,30.44-3.75,9.78-7.56,19.54-11.35,29.3q-5.82,15-11.65,29.93c-4.27,11.05-8.44,22.14-12.78,33.17-4.5,11.46-8.7,23-13.37,34.42-3.85,9.41-7.3,19-10.95,28.47q-6.44,16.71-12.89,33.38Q647.27,598.29,640.5,616q-6.13,15.94-12.28,31.89c-3.61,9.34-7.26,18.67-10.88,28q-4.07,10.47-8.11,21Q604,710.41,598.76,724q-6.12,15.84-12.26,31.66c-2.43,6.28-4.86,12.55-7.21,18.85-.78,2.09-1.92.68-2.7.29-7-3.44-14-7-21.06-10.49L435.85,704.49c-.82-.41-1.55-1.09-2.58-.77-.33-1.32-1.62-1.41-2.55-1.88q-29-14.52-57.94-29c-1.76-.87-1.76-1.33-.44-2.71Q407,634,441.56,597.68q26.76-28,53.61-55.9,36.66-38.26,73.27-76.58,31.45-32.88,62.91-65.78,41.37-43.29,82.71-86.6c10.84-11.34,21.75-22.6,32.6-33.92q18.24-19,36.45-38.13l.39-.38c.1-.26.8-.29.34-.73-.19-.18-.53,0-.63.36l-.52.43c-3.53,2.66-7.08,5.28-10.58,8Q719,289.26,665.85,330.11,617.9,367,570,403.88q-42.76,32.91-85.56,65.8l-89.7,69q-40.62,31.23-81.24,62.47c-5.82,4.46-11.4,9.26-17.62,13.19a6.54,6.54,0,0,1-4.24-1.45c-7.81-5.32-15.73-10.49-23.6-15.73q-14.21-9.45-28.38-18.93L216.78,563l-28.56-19.09c-1.4-.93-2.82-1.85-4.22-2.8-2.39-1.62-2.38-1.69.14-3q11.34-5.7,22.68-11.39L692.4,284q45.4-22.69,90.79-45.42c.51-.26,1.18-.32,1.47-1C786.57,237.23,786.05,238.61,786.09,239.57Z"/><path class="cls-5" d="M295.84,614.33c6.22-3.93,11.8-8.73,17.62-13.19Q354.13,570,394.7,538.67l89.7-69q42.78-32.9,85.56-65.8,48-36.88,95.89-73.77Q719,289.25,772.11,248.43c3.5-2.7,7-5.32,10.58-8l.42.32q-18.23,19.08-36.45,38.13c-10.85,11.32-21.76,22.58-32.6,33.92q-41.37,43.28-82.71,86.6-31.44,32.91-62.91,65.78-36.63,38.3-73.27,76.58-26.78,28-53.61,55.9-34.63,36.23-69.22,72.5c-1.32,1.38-1.32,1.84.44,2.71q29,14.4,57.94,29c.93.47,2.22.56,2.55,1.88a1.36,1.36,0,0,1-1.32,1L371,674.2v91.26c-3-4.54-5.12-9.55-7.57-14.39q-6.24-12.32-12.41-24.69c-3.9-7.83-7.72-15.7-11.63-23.52-6.16-12.28-12.38-24.53-18.54-36.81q-12-23.94-24-47.9A6.54,6.54,0,0,1,295.84,614.33Z"/><path class="cls-6" d="M371,765.46V674.2L432,704.73a4.78,4.78,0,0,1-1.58,2q-28.55,28.56-57.11,57.11C372.61,764.52,372.1,765.42,371,765.46Z"/></g></g></g></svg>