<?xml version="1.0" encoding="utf-8"?>
<!-- Generator: Adobe Illustrator 22.0.1, SVG Export Plug-In . SVG Version: 6.00 Build 0)  -->
<svg version="1.1" id="Layer_1" xmlns="http://www.w3.org/2000/svg" xmlns:xlink="http://www.w3.org/1999/xlink" x="0px" y="0px"
	 viewBox="0 0 512 512" style="enable-background:new 0 0 512 512;" xml:space="preserve">
<style type="text/css">
	.st0{fill:#FFFFFF;}
</style>
<g>
	<path class="st0" d="M256,7C118.5,7,7,118.5,7,256s111.5,249,249,249s249-111.5,249-249S393.5,7,256,7z M255.5,467
		C139.2,467,45,372.8,45,256.5S139.2,46,255.5,46S466,140.2,466,256.5S371.8,467,255.5,467z"/>
</g>
<g>
	<path class="st0" d="M208.2,383.4c-13-6.4-23.5-15.3-31.4-26.9l20.9-24.5c14,20,31.5,30,52.7,30c14.2,0,25-4.3,32.3-13
		c7.3-8.7,11-21.4,11-38.3V168.9h-91.3v-31.4h127v171.4c0,27.9-6.7,48.9-20,63c-13.4,14.1-33,21.1-59,21.1
		C235.2,393,221.1,389.8,208.2,383.4z"/>
</g>
</svg>
